# AST/ASF file generated using VICON BodyLanguage
# -----------------------------------------------
:version 1.10
:name VICON
:units
  mass 1.0
  length 0.45
  angle deg
:documentation
   .ast/.asf automatically generated from VICON data using
   VICON BodyBuilder and BodyLanguage model FoxedUp or BRILLIANT.MOD
:root
   order TX TY TZ RX RY RZ
   axis XYZ
   position 0 0 0  
   orientation 0 0 0 
:bonedata
  begin
     id 1 
     name lhipjoint
     direction 0.528046 -0.759594 0.379717 
     length 2.39752 
     axis 0 0 0  XYZ
  end
  begin
     id 2 
     name lfemur
     direction 0.34202 -0.939693 0  
     length 7.31175  
     axis 0 0 20  XYZ
    dof rx ry rz
    limits (-160.0 20.0)
           (-70.0 70.0)
           (-60.0 70.0)
  end
  begin
     id 3 
     name ltibia
     direction 0.34202 -0.939693 0   
     length 7.52482   
     axis 0 0 20   XYZ
    dof rx
    limits (-10.0 170.0)
  end
  begin
     id 4 
     name lfoot
     direction 0.0675379 -0.185559 0.980309   
     length 2.00961   
     axis -90 7.62852e-016 20   XYZ
    dof rx rz
    limits (-45.0 90.0)
           (-70.0 20.0)
  end
  begin
     id 5 
     name ltoes
     direction 1.5352e-011 -4.22286e-011 1   
     length 1.01383   
     axis -90 7.62852e-016 20   XYZ
    dof rx
    limits (-90.0 20.0)
  end
  begin
     id 6 
     name rhipjoint
     direction -0.510274 -0.769251 0.384544   
     length 2.36742  
     axis 0 0 0  XYZ 
  end
  begin
     id 7 
     name rfemur
     direction -0.34202 -0.939693 0   
     length 7.45325   
     axis 0 0 -20   XYZ
    dof rx ry rz
    limits (-160.0 20.0)
           (-70.0 70.0)
           (-70.0 60.0)
  end
  begin
     id 8 
     name rtibia
     direction -0.34202 -0.939693 0   
     length 7.49587   
     axis 0 0 -20   XYZ
    dof rx
    limits (-10.0 170.0)
 end
 begin
     id 9 
     name rfoot
     direction -0.106475 -0.292536 0.950308   
     length 2.20898  
     axis -90 -7.62852e-016 -20   XYZ
    dof rx rz
    limits (-45.0 90.0)
           (-20.0 70.0)
  end
  begin
     id 10 
     name rtoes
     direction -1.53597e-011 -4.22023e-011 1   
     length 1.10065   
     axis -90 -7.62852e-016 -20   XYZ
    dof rx
    limits (-90.0 20.0)
  end
  begin
     id 11 
     name lowerback
     direction 0.0260024 0.998026 -0.0571652   
     length 2.11214   
     axis 0 0 0   XYZ
    dof rx ry rz
    limits (-20.0 45.0)
           (-30.0 30.0)
           (-30.0 30.0)
  end
  begin
     id 12 
     name upperback
     direction 0.0216202 0.999542 -0.0211766   
     length 2.11689   
     axis 0 0 0   XYZ
    dof rx ry rz
    limits (-20.0 45.0)
           (-30.0 30.0)
           (-30.0 30.0)
  end
  begin
     id 13 
     name thorax
     direction 0.00883312 0.999944 0.00589057   
     length 2.11821   
     axis 0 0 0   XYZ
    dof rx ry rz
    limits (-20.0 45.0)
           (-30.0 30.0)
           (-30.0 30.0)
  end
  begin
     id 14 
     name lowerneck
     direction -0.059386 0.994433 0.0870401   
     length 1.81176   
     axis 0 0 0   XYZ
    dof rx ry rz
    limits (-20.0 45.0)
           (-30.0 30.0)
           (-30.0 30.0)
  end
  begin
     id 15 
     name upperneck
     direction 0.0506457 0.97328 -0.223967   
     length 1.82382   
     axis 0 0 0   XYZ
    dof rx ry rz
    limits (-20.0 45.0)
           (-30.0 30.0)
           (-30.0 30.0)
  end
  begin
     id 16
     name head
     direction 0.0205902 0.996147 -0.0852487  
     length 1.84805  
     axis 0 0 0   XYZ
    dof rx ry rz
    limits (-20.0 45.0)
           (-30.0 30.0)
           (-30.0 30.0)
  end
  begin
     id 17 
     name lclavicle
     direction 0.949493 0.303881 -0.0782325  
     length 3.60584  
     axis 0 0 0   XYZ
    dof ry rz
    limits (-20.0 10.0)
           (0.0 20.0)
  end
  begin
     id 18 
     name lhumerus
     direction 1 -4.48965e-011 1.48782e-027   
     length 4.95681   
     axis 180 -30 -90   XYZ
    dof rx ry rz
    limits (-60.0 90.0)
           (-90.0 90.0)
           (-90.0 90.0)
  end
  begin
     id 19
     name lradius
     direction 1 -4.48952e-011 2.06528e-027   
     length 3.40915   
     axis 180 -30 -90   XYZ
    dof rx
    limits (-10.0 170.0)
  end
  begin
     id 20
     name lwrist
     direction 1 -4.48964e-011 1.28021e-027   
     length 1.70457   
     axis -1.61767e-015 90 90   XYZ
    dof ry
    limits (-180.0 0.0)
 end
  begin
     id 21 
     name lhand
     direction 1 -4.49094e-011 2.54887e-027   
     length 0.616403   
     axis -1.63363e-015 90 90   XYZ
    dof rx rz
    limits (-90.0 90.0)
           (-45.0 45.0)
  end
  begin
     id 22 
     name lfingers
     direction 1 -4.49002e-011 5.11407e-027   
     length 0.49696   
     axis -3.26723e-015 90 90   XYZ
    dof rx
    limits (0.0 90.0)
  end
  begin
     id 23
     name lthumb
     direction 0.707107 -6.34998e-011 0.707107   
     length 0.713539   
     axis -90 45 -2.25915e-014   XYZ
    dof rx rz
    limits (-45.0 45.0)
           (-45.0 45.0)
  end
  begin
     id 24 
     name rclavicle
     direction -0.937751 0.334612 -0.0930482   
     length 3.46287  
     axis 0 0 0   XYZ 
    dof ry rz
    limits (-10.0 20.0)
           (-20.0 0.0)
  end
  begin
     id 25 
     name rhumerus
     direction -1 -4.48962e-011 3.59972e-027  
     length 5.352   
     axis 180 30 90   XYZ
    dof rx ry rz
    limits (-90.0 60.0)
           (-90.0 90.0)
           (-90.0 90.0)
  end
  begin
     id 26 
     name rradius
     direction -1 -4.48987e-011 -3.76925e-027   
     length 3.43721   
     axis 180 30 90   XYZ
    dof rx
    limits (-10.0 170.0)
  end
  begin
     id 27 
     name rwrist
     direction -1 -4.48943e-011 1.28112e-027   
     length 1.7186   
     axis -1.61767e-015 -90 -90   XYZ
    dof ry
    limits (-180.0 0.0)
  end
  begin
     id 28
     name rhand
     direction -1 -4.49027e-011 2.55483e-027   
     length 0.72009   
     axis -1.63363e-015 -90 -90   XYZ
    dof rx rz
    limits (-90.0 90.0)
           (-45.0 45.0)
  end
  begin
     id 29
     name rfingers
     direction -1 -4.48827e-011 5.14506e-027   
     length 0.580555   
     axis -3.26723e-015 -90 -90   XYZ
    dof rx
    limits (0.0 90.0)
  end
  begin
     id 30
     name rthumb
     direction -0.707107 -6.34936e-011 0.707107   
     length 0.833564   
     axis -90 -45 2.25915e-014   XYZ
    dof rx rz
    limits (-45.0 45.0)
           (-45.0 45.0)
  end
:hierarchy
  begin
    root lhipjoint rhipjoint lowerback
    lhipjoint lfemur
    lfemur ltibia
    ltibia lfoot
    lfoot ltoes
    rhipjoint rfemur
    rfemur rtibia
    rtibia rfoot
    rfoot rtoes
    lowerback upperback
    upperback thorax
    thorax lowerneck lclavicle rclavicle
    lowerneck upperneck
    upperneck head
    lclavicle lhumerus
    lhumerus lradius
    lradius lwrist
    lwrist lhand lthumb
    lhand lfingers
    rclavicle rhumerus
    rhumerus rradius
    rradius rwrist
    rwrist rhand rthumb
    rhand rfingers
  end

#!OML:ASF H:\Terrain\Patient Classification 1\Terrain2\Thursday\justin.ASF
:FULLY-SPECIFIED
:DEGREES
1
root -14.7327 17.3185 -0.487963 -172.119 85.3786 -173.577
lowerback 2.58238 -0.755541 -1.99924
upperback 1.2084 -1.00527 3.00913
thorax -0.11757 -0.504303 4.24708
lowerneck -12.8598 -3.91393 -10.1585
upperneck 37.4157 -2.64374 3.69803
head 15.5898 -1.52128 3.09054
rclavicle 8.59744e-015 -1.19271e-014
rhumerus -26.986 -5.80215 -78.9877
rradius 29.7944
rwrist -12.739
rhand -22.7625 13.45
rfingers 7.12502
rthumb 3.67244 -16.4981
lclavicle 8.59744e-015 -1.19271e-014
lhumerus -34.3127 11.5035 80.2577
lradius 21.3479
lwrist -3.60714
lhand -19.6703 22.0035
lfingers 7.12502
lthumb 6.65806 51.8788
rfemur -11.5086 -6.69122 21.5576
rtibia 37.7145
rfoot -24.1545 -7.41993
rtoes 14.6644
lfemur -8.59979 6.66642 -20.415
ltibia 28.0312
lfoot -15.9066 -14.5964
ltoes 20.0623
2
root -14.7275 17.3222 -0.474417 -169.771 85.3903 -171.3
lowerback 2.52853 -0.89227 -2.06321
upperback 1.19979 -1.18564 3.17717
thorax -0.0750085 -0.595077 4.46151
lowerneck -12.9733 -3.71965 -10.0949
upperneck 37.4514 -2.33161 3.62201
head 15.6008 -1.39295 3.09982
rclavicle -3.62782e-015 -2.3059e-014
rhumerus -26.829 -5.22272 -79.0904
rradius 30.0507
rwrist -12.3544
rhand -22.4006 13.1348
rfingers 7.12502
rthumb 4.02192 -16.807
lclavicle -3.62782e-015 -2.3059e-014
lhumerus -34.6061 12.2083 79.7739
lradius 21.2796
lwrist -3.90985
lhand -19.3692 22.0517
lfingers 7.12502
lthumb 6.94875 51.9177
rfemur -11.5628 -6.6974 21.8188
rtibia 37.6957
rfoot -24.1897 -7.3785
rtoes 14.7669
lfemur -8.66656 6.81557 -20.1353
ltibia 28.043
lfoot -15.7743 -14.836
ltoes 21.3177
3
root -14.7226 17.3205 -0.457391 -170.479 85.5508 -172.149
lowerback 2.35658 -0.923623 -2.26409
upperback 1.19185 -1.23174 3.19888
thorax 0.0224816 -0.621367 4.596
lowerneck -13.1034 -3.65331 -10.4329
upperneck 37.5291 -2.18446 3.81301
head 15.6691 -1.35562 3.27035
rclavicle -2.48481e-016 -3.97569e-015
rhumerus -26.736 -4.77353 -79.2243
rradius 30.4129
rwrist -12.4085
rhand -22.2492 12.9565
rfingers 7.12502
rthumb 4.16813 -16.9824
lclavicle -2.48481e-016 -3.97569e-015
lhumerus -34.8982 12.4952 79.5542
lradius 21.3393
lwrist -4.15851
lhand -19.2228 22.439
lfingers 7.12502
lthumb 7.0901 52.3002
rfemur -11.7503 -6.8601 21.7818
rtibia 37.7722
rfoot -24.2193 -7.23913
rtoes 14.2181
lfemur -8.74657 6.57537 -20.223
ltibia 28.0209
lfoot -16.1771 -14.3316
ltoes 20.0555
4
root -14.719 17.3161 -0.448631 -173.061 85.7537 -174.8
lowerback 2.22882 -0.82341 -2.26776
upperback 1.24041 -1.10165 2.99481
thorax 0.12705 -0.559616 4.38031
lowerneck -13.2241 -3.63401 -10.4128
upperneck 37.5831 -2.15437 3.8422
head 15.7217 -1.33699 3.28698
rclavicle 2.09221e-014 -2.54444e-014
rhumerus -26.6647 -4.61592 -79.5171
rradius 30.7662
rwrist -12.777
rhand -22.4726 12.8177
rfingers 7.12502
rthumb 3.95244 -17.1254
lclavicle 2.09221e-014 -2.54444e-014
lhumerus -35.0356 11.4747 79.7255
lradius 21.5409
lwrist -3.13586
lhand -19.394 22.7769
lfingers 7.12502
lthumb 6.92483 52.6436
rfemur -11.8021 -6.98211 21.5389
rtibia 37.7659
rfoot -24.2486 -6.99664
rtoes 14.3638
lfemur -8.79281 6.18433 -20.5103
ltibia 28.0958
lfoot -16.4973 -13.6725
ltoes 19.5602
5
root -14.7169 17.3114 -0.442543 -171.694 85.7856 -173.326
lowerback 2.33948 -0.730856 -1.92917
upperback 1.31737 -0.973285 2.85762
thorax 0.123389 -0.493778 4.04441
lowerneck -13.1932 -3.60203 -9.90454
upperneck 37.4343 -2.16397 3.54541
head 15.6212 -1.30792 3.05995
rclavicle 5.81445e-015 7.15625e-015
rhumerus -26.5985 -4.62878 -79.8051
rradius 31.0383
rwrist -13.223
rhand -22.5854 12.9802
rfingers 7.12502
rthumb 3.84348 -16.9649
lclavicle 5.81445e-015 7.15625e-015
lhumerus -35.0509 10.3033 79.9769
lradius 21.6184
lwrist -2.04481
lhand -19.5043 23.059
lfingers 7.12502
lthumb 6.81838 52.9292
rfemur -11.628 -6.87678 21.6513
rtibia 37.7441
rfoot -24.4563 -6.76117
rtoes 15.9208
lfemur -8.73146 6.19654 -20.3496
ltibia 28.1977
lfoot -16.4688 -13.6749
ltoes 19.2923
6
root -14.7132 17.3094 -0.430909 -166.816 85.7777 -168.392
lowerback 2.40702 -0.603106 -1.33894
upperback 1.33153 -0.790682 2.74886
thorax 0.0740939 -0.397638 3.59459
lowerneck -12.9968 -3.6606 -9.36169
upperneck 37.1873 -2.38464 3.35619
head 15.4509 -1.34827 2.83591
rclavicle -6.41081e-015 0
rhumerus -26.7239 -4.75283 -80.0742
rradius 31.3878
rwrist -13.4813
rhand -22.5299 13.2463
rfingers 7.12502
rthumb 3.89706 -16.6978
lclavicle -6.41081e-015 0
lhumerus -35.1167 10.383 79.5828
lradius 21.4948
lwrist -2.34364
lhand -19.7063 22.9563
lfingers 7.12502
lthumb 6.62331 52.8328
rfemur -11.5398 -6.91524 22.0685
rtibia 37.7021
rfoot -24.5712 -6.5167
rtoes 16.6726
lfemur -8.7452 6.34999 -19.87
ltibia 28.3272
lfoot -16.6262 -13.6829
ltoes 17.3739
7
root -14.707 17.3081 -0.418851 -164.22 85.8848 -165.874
lowerback 2.32159 -0.50824 -1.0398
upperback 1.30717 -0.658552 2.68653
thorax 0.0827804 -0.329656 3.35734
lowerneck -12.9729 -3.70761 -9.47066
upperneck 37.2208 -2.50443 3.57975
head 15.4778 -1.38326 2.93312
rclavicle 1.14798e-014 -1.19271e-014
rhumerus -26.8411 -4.59082 -80.2856
rradius 31.7153
rwrist -13.3107
rhand -22.88 13.149
rfingers 7.12502
rthumb 3.55896 -16.801
lclavicle 1.14798e-014 -1.19271e-014
lhumerus -35.3169 11.4408 78.846
lradius 21.4113
lwrist -3.39428
lhand -19.4512 22.6108
lfingers 7.12502
lthumb 6.8696 52.4794
rfemur -11.6446 -7.18624 22.2684
rtibia 37.6779
rfoot -24.4306 -6.40826
rtoes 15.1192
lfemur -8.83013 6.01688 -19.6889
ltibia 28.435
lfoot -16.8739 -13.2493
ltoes 17.6106
8
root -14.6981 17.3025 -0.40674 -165.99 86.0945 -167.682
lowerback 2.24116 -0.453192 -1.16954
upperback 1.31953 -0.589927 2.6184
thorax 0.136596 -0.297292 3.35792
lowerneck -13.108 -3.74656 -10.15
upperneck 37.4247 -2.53129 4.12112
head 15.6429 -1.41836 3.29211
rclavicle 3.27995e-015 0
rhumerus -26.8752 -4.3885 -80.4532
rradius 31.9702
rwrist -13.0997
rhand -23.1376 13.0567
rfingers 7.12502
rthumb 3.31023 -16.8974
lclavicle 3.27995e-015 0
lhumerus -35.5228 12.1274 78.3402
lradius 21.4056
lwrist -4.3251
lhand -18.5866 22.3378
lfingers 7.12502
lthumb 7.70415 52.1774
rfemur -11.6757 -7.28801 22.1007
rtibia 37.6698
rfoot -24.3593 -6.19456
rtoes 14.3781
lfemur -8.82212 5.63131 -19.8919
ltibia 28.5163
lfoot -16.9245 -12.8469
ltoes 20.0544
9
root -14.6898 17.2982 -0.391382 -170.455 86.3367 -172.089
lowerback 2.28219 -0.368255 -1.47684
upperback 1.34842 -0.485878 2.48176
thorax 0.137844 -0.248009 3.38846
lowerneck -13.1607 -3.80919 -10.6115
upperneck 37.5142 -2.62311 4.51904
head 15.7302 -1.46971 3.53658
rclavicle 6.70898e-015 4.77083e-015
rhumerus -26.9642 -4.49601 -80.5599
rradius 32.3138
rwrist -13.0213
rhand -22.7706 13.2024
rfingers 7.12502
rthumb 3.66461 -16.7458
lclavicle 6.70898e-015 4.77083e-015
lhumerus -35.7778 12.0641 78.1739
lradius 21.5636
lwrist -4.62554
lhand -17.9385 22.3164
lfingers 7.12502
lthumb 8.32965 52.1321
rfemur -11.5641 -7.22946 21.7566
rtibia 37.6301
rfoot -24.3992 -5.93756
rtoes 15.0962
lfemur -8.73881 5.54138 -20.2287
ltibia 28.6212
lfoot -16.8347 -12.5854
ltoes 20.8671
10
root -14.6837 17.2957 -0.370144 -168.266 86.5039 -169.796
lowerback 2.42988 -0.311595 -1.42867
upperback 1.3559 -0.408866 2.49821
thorax 0.0571898 -0.207883 3.37769
lowerneck -13.1356 -3.81732 -10.7097
upperneck 37.518 -2.63535 4.59253
head 15.7316 -1.47912 3.58434
rclavicle 8.84592e-015 1.59028e-015
rhumerus -27.0438 -4.52063 -80.6527
rradius 32.68
rwrist -13.0715
rhand -22.1456 13.4329
rfingers 7.12502
rthumb 4.26821 -16.5041
lclavicle 8.84592e-015 1.59028e-015
lhumerus -36.0808 11.4509 78.4104
lradius 21.8052
lwrist -3.82336
lhand -18.4557 22.2661
lfingers 7.12502
lthumb 7.83048 52.1011
rfemur -11.3881 -6.90121 21.9645
rtibia 37.5209
rfoot -24.4314 -6.07303
rtoes 15.3425
lfemur -8.688 5.56481 -20.0345
ltibia 28.7845
lfoot -16.8185 -12.3755
ltoes 19.091
11
root -14.6763 17.2962 -0.345303 -159.727 86.4602 -161.185
lowerback 2.53659 -0.156356 -0.851589
upperback 1.31032 -0.18632 2.52901
thorax -0.0670858 -0.0907807 3.07897
lowerneck -13.0055 -3.96022 -11.1263
upperneck 37.5758 -2.92984 5.12952
head 15.7836 -1.58791 3.84857
rclavicle -2.5345e-015 2.06736e-014
rhumerus -27.2636 -4.8475 -80.7325
rradius 33.0151
rwrist -13.3061
rhand -21.44 13.5611
rfingers 7.12502
rthumb 4.94954 -16.3611
lclavicle -2.5345e-015 2.06736e-014
lhumerus -36.2517 10.4034 78.7542
lradius 21.8819
lwrist -2.96855
lhand -19.2519 22.0457
lfingers 7.12502
lthumb 7.06201 51.9079
rfemur -11.205 -6.45001 22.6716
rtibia 37.3509
rfoot -24.4638 -6.32707
rtoes 15.3842
lfemur -8.73392 5.60526 -19.3868
ltibia 29.0024
lfoot -17.0633 -12.1636
ltoes 16.7574
12
root -14.6678 17.3007 -0.324605 -157.993 86.4491 -159.419
lowerback 2.587 -0.0321402 -0.632123
upperback 1.28891 -0.0165606 2.42351
thorax -0.127832 -0.00423127 2.84204
lowerneck -12.4902 -3.92868 -10.2823
upperneck 37.1191 -3.02924 4.64216
head 15.403 -1.57117 3.44743
rclavicle 9.98893e-015 2.0276e-014
rhumerus -27.4339 -5.00692 -80.8809
rradius 33.3258
rwrist -13.6386
rhand -20.9833 13.375
rfingers 7.12502
rthumb 5.39049 -16.5364
lclavicle 9.98893e-015 2.0276e-014
lhumerus -36.3791 9.98281 78.7821
lradius 21.9213
lwrist -2.81671
lhand -18.6541 22.1375
lfingers 7.12502
lthumb 7.63905 51.9796
rfemur -11.0509 -6.5376 22.8425
rtibia 37.1633
rfoot -24.4782 -6.1388
rtoes 15.3999
lfemur -8.82279 5.47403 -19.2117
ltibia 29.2706
lfoot -17.3329 -11.9528
ltoes 15.9986
13
root -14.6613 17.3044 -0.307175 -159.736 86.6562 -161.122
lowerback 2.6548 -0.186562 -0.991264
upperback 1.3661 -0.229989 2.51454
thorax -0.0727955 -0.113608 3.14441
lowerneck -12.8932 -3.7438 -10.7683
upperneck 37.3428 -2.63516 4.84436
head 15.5874 -1.45122 3.69701
rclavicle -6.75868e-015 -5.96354e-015
rhumerus -27.1879 -3.87792 -81.1822
rradius 33.5159
rwrist -13.936
rhand -21.1173 13.0339
rfingers 7.12502
rthumb 5.26114 -16.8808
lclavicle -6.75868e-015 -5.96354e-015
lhumerus -36.6289 10.9121 78.6267
lradius 22.0707
lwrist -2.60741
lhand -18.1458 22.1296
lfingers 7.12502
lthumb 8.12964 51.9532
rfemur -10.8904 -6.49699 22.6734
rtibia 37.0092
rfoot -24.5779 -5.78085
rtoes 16.3678
lfemur -8.88121 5.30709 -19.3446
ltibia 29.5447
lfoot -17.2527 -11.8945
ltoes 17.2411
14
root -14.6586 17.3044 -0.286758 -157.647 86.8235 -159.002
lowerback 2.77371 -0.425886 -1.28106
upperback 1.42042 -0.551207 2.78413
thorax -0.0574923 -0.275642 3.59622
lowerneck -13.2372 -3.45341 -10.8308
upperneck 37.4164 -2.01453 4.48709
head 15.6384 -1.25287 3.65856
rclavicle 3.8763e-015 -2.38542e-014
rhumerus -26.8705 -2.47991 -81.447
rradius 33.5851
rwrist -13.886
rhand -21.3823 13.1183
rfingers 7.12502
rthumb 5.00518 -16.8026
lclavicle 3.8763e-015 -2.38542e-014
lhumerus -36.9968 11.9723 78.5593
lradius 22.3607
lwrist -2.15221
lhand -18.9499 22.0336
lfingers 7.12502
lthumb 7.35355 51.8858
rfemur -10.7649 -5.92073 22.838
rtibia 36.9054
rfoot -24.6501 -5.89164
rtoes 16.9717
lfemur -8.97099 5.1007 -19.2337
ltibia 29.824
lfoot -17.0913 -11.8096
ltoes 19.4486
15
root -14.6561 17.299 -0.26458 -153.414 86.8707 -154.721
lowerback 2.89414 -0.454089 -1.18363
upperback 1.41908 -0.583977 2.85088
thorax -0.124195 -0.290129 3.61234
lowerneck -13.2682 -3.38617 -10.7056
upperneck 37.4676 -1.89013 4.3424
head 15.6539 -1.20322 3.59629
rclavicle 3.42904e-015 -2.78299e-014
rhumerus -26.8778 -2.35898 -81.636
rradius 33.6785
rwrist -13.4276
rhand -21.3897 13.6594
rfingers 7.12502
rthumb 4.99803 -16.2616
lclavicle 3.42904e-015 -2.78299e-014
lhumerus -37.2559 12.2962 78.4728
lradius 22.6033
lwrist -2.26543
lhand -20.5005 22.1451
lfingers 7.12502
lthumb 5.85662 52.0441
rfemur -10.6157 -5.43293 23.1724
rtibia 36.7475
rfoot -24.656 -6.08239
rtoes 16.9321
lfemur -9.10908 4.64813 -18.9713
ltibia 30.2327
lfoot -17.0952 -11.5235
ltoes 21.389
